<svg width="29" height="37" viewBox="0 0 29 37" fill="none" xmlns="http://www.w3.org/2000/svg">
<path d="M17.5791 20.3704C17.0428 19.6396 16.2569 19.1311 15.3705 18.9413V15.5388C15.9447 15.602 16.522 15.6332 17.0997 15.6324C19.4823 15.6324 22.9992 15.1127 25.643 12.4624C29.0922 9.01312 28.9389 4.0776 28.7129 2.11716C28.6813 1.80425 28.5427 1.51184 28.3204 1.28933C28.0981 1.06683 27.8058 0.927871 27.493 0.895947C25.5312 0.669892 20.597 0.516591 17.1477 3.96587C15.937 5.19412 15.0504 6.70394 14.5676 8.35964C14.0837 6.70354 13.1957 5.1937 11.9836 3.96587C8.53428 0.516591 3.60006 0.669892 1.63832 0.895947C1.32544 0.927871 1.03318 1.06683 0.81091 1.28933C0.588642 1.51184 0.449999 1.80425 0.418408 2.11716C0.192353 4.0776 0.0390525 9.01312 3.48833 12.4624C6.13213 15.1062 9.64896 15.6324 12.0316 15.6324C12.6089 15.6326 13.1857 15.6013 13.7595 15.5388V18.9387C12.8719 19.1312 12.086 19.643 11.5509 20.3769L0.428801 35.8681C0.365852 35.9555 0.328271 36.0586 0.320203 36.166C0.312136 36.2734 0.333895 36.381 0.383082 36.4768C0.432269 36.5726 0.50697 36.653 0.598944 36.709C0.690917 36.7651 0.796588 36.7946 0.904296 36.7944H28.2309C28.3386 36.7946 28.4443 36.7651 28.5362 36.709C28.6282 36.653 28.7029 36.5726 28.7521 36.4768C28.8013 36.381 28.8231 36.2734 28.815 36.166C28.8069 36.0586 28.7693 35.9555 28.7064 35.8681L17.5791 20.3704ZM23.1148 5.34039C23.2686 5.19154 23.4753 5.1099 23.6894 5.11343C23.9034 5.11696 24.1073 5.20538 24.2561 5.35922C24.405 5.51307 24.4866 5.71975 24.4831 5.93378C24.4795 6.14782 24.3911 6.35169 24.2373 6.50054L15.3744 15.0672V12.8184L23.1148 5.34039ZM4.89662 6.50054C4.74278 6.35169 4.65436 6.14782 4.65083 5.93378C4.6473 5.71975 4.72894 5.51307 4.87779 5.35922C5.02664 5.20538 5.2305 5.11696 5.44454 5.11343C5.65858 5.1099 5.86526 5.19154 6.0191 5.34039L13.7595 12.8184V15.0633L4.89662 6.50054Z" fill="#F25C05"/>
</svg>
