<svg width="30" height="37" viewBox="0 0 30 37" fill="none" xmlns="http://www.w3.org/2000/svg">
<path d="M22.4114 9.49009L22.7084 8.88415L25.9006 7.96112L27.979 3.75897C28.0109 3.69405 28.0234 3.62128 28.0148 3.54944C28.0063 3.47759 27.9772 3.40976 27.9309 3.35412C27.8847 3.29848 27.8233 3.25742 27.7542 3.23589C27.6852 3.21437 27.6113 3.2133 27.5417 3.23282L25.7663 3.73776C25.3719 3.84981 24.9499 3.81067 24.5829 3.628C24.2159 3.44533 23.9302 3.13227 23.7819 2.75009L23.1133 1.03328C23.0871 0.965584 23.0418 0.90698 22.9828 0.864629C22.9239 0.822278 22.8539 0.798013 22.7814 0.7948C22.7089 0.791587 22.637 0.809563 22.5745 0.846534C22.512 0.883505 22.4617 0.937869 22.4296 1.00298L20.3533 5.20109L21.5753 8.3479L21.2844 8.9397C19.4418 8.12429 17.4491 7.70325 15.4341 7.70359H15.423C7.4035 7.70965 0.880632 14.2396 0.887701 22.2591C0.89477 30.2786 7.41764 36.7944 15.4301 36.7944H15.4412C18.6715 36.7935 21.8095 35.7171 24.3602 33.735C26.9109 31.753 28.7291 28.978 29.5279 25.8481C30.3266 22.7181 30.0606 19.4113 28.7716 16.4493C27.4827 13.4874 25.2442 11.0388 22.4094 9.49009H22.4114ZM25.1381 31.9349C23.869 33.2136 22.3588 34.2279 20.695 34.919C19.0312 35.6101 17.2469 35.9644 15.4452 35.9613H15.4341C7.87815 35.9613 1.72692 29.8161 1.72086 22.2581C1.7148 14.7001 7.85997 8.5418 15.425 8.53574H15.4351C17.3221 8.53445 19.1887 8.92512 20.9168 9.68297L19.4585 12.648C18.1833 12.1177 16.8163 11.8431 15.4351 11.8401C15.4325 11.8406 15.4297 11.8406 15.4271 11.8401C12.6663 11.841 10.019 12.9386 8.06752 14.8914C6.11604 16.8443 5.02024 19.4923 5.02117 22.2531C5.02211 25.0138 6.11971 27.6611 8.07252 29.6126C10.0253 31.5641 12.6734 32.6599 15.4341 32.6589H15.4412C18.2017 32.6568 20.8484 31.5583 22.799 29.6049C24.7497 27.6516 25.8447 25.0035 25.843 22.243C25.843 21.8875 25.8239 21.536 25.7885 21.1846C25.5488 18.8015 24.4886 16.5757 22.7891 14.8879C22.1321 14.2319 21.3907 13.6661 20.5846 13.2055L22.0438 10.2384C23.9075 11.262 25.5073 12.7053 26.7167 14.4541C27.926 16.2029 28.7118 18.2091 29.0117 20.3141C29.3116 22.4191 29.1174 24.5649 28.4446 26.5819C27.7718 28.5988 26.6387 30.4315 25.1351 31.9349H25.1381ZM15.4432 28.0973C14.5893 28.0978 13.7456 27.9112 12.9715 27.5506C12.1974 27.1901 11.5117 26.6644 10.9626 26.0104C10.4134 25.3564 10.0143 24.5901 9.79308 23.7653C9.5719 22.9405 9.53409 22.0772 9.68232 21.2362C9.83055 20.3953 10.1612 19.597 10.6511 18.8975C11.1409 18.198 11.778 17.6143 12.5176 17.1875C13.2573 16.7607 14.0814 16.501 14.9321 16.4269C15.7828 16.3527 16.6395 16.4658 17.4418 16.7583L14.8757 21.9743C14.8331 22.0486 14.8062 22.1307 14.7965 22.2158C14.7869 22.3008 14.7948 22.3869 14.8197 22.4688C14.8446 22.5507 14.886 22.6266 14.9413 22.6919C14.9966 22.7571 15.0647 22.8104 15.1414 22.8484C15.2181 22.8863 15.3018 22.9082 15.3873 22.9126C15.4727 22.9171 15.5582 22.9039 15.6384 22.8741C15.7186 22.8443 15.7919 22.7983 15.8536 22.7391C15.9154 22.6799 15.9644 22.6086 15.9976 22.5298L18.5648 17.3127C19.6346 17.9897 20.4556 18.9959 20.9043 20.1797C21.353 21.3636 21.4052 22.6611 21.0529 23.8772C20.7006 25.0932 19.963 26.162 18.951 26.9227C17.9389 27.6834 16.7072 28.0949 15.4412 28.0953L15.4432 28.0973Z" fill="#F25C05"/>
</svg>
