<svg width="33" height="37" viewBox="0 0 33 37" fill="none" xmlns="http://www.w3.org/2000/svg">
<path d="M17.802 5.34593V5.26756H18.0211C18.6142 5.26756 19.1831 5.03192 19.6026 4.61248C20.022 4.19305 20.2576 3.62417 20.2576 3.031C20.2576 2.43782 20.022 1.86894 19.6026 1.44951C19.1831 1.03007 18.6142 0.794434 18.0211 0.794434H14.5889C13.9957 0.794434 13.4268 1.03007 13.0074 1.44951C12.5879 1.86894 12.3523 2.43782 12.3523 3.031C12.3523 3.62417 12.5879 4.19305 13.0074 4.61248C13.4268 5.03192 13.9957 5.26756 14.5889 5.26756H14.8079V5.34593C6.81717 6.1025 0.540527 12.8494 0.540527 21.034C0.540527 29.7251 7.61092 36.7944 16.301 36.7944C24.991 36.7944 32.0614 29.7251 32.0614 21.034C32.0654 12.8494 25.7928 6.1025 17.802 5.34593ZM16.305 35.8902C8.11329 35.8902 1.44882 29.2257 1.44882 21.034C1.44882 12.8423 8.11329 6.17886 16.305 6.17886C24.4967 6.17886 31.1611 12.8433 31.1611 21.034C31.1611 29.2247 24.4967 35.8902 16.305 35.8902Z" fill="#F25C05"/>
<path d="M16.3048 9.04883C13.9353 9.04883 11.6189 9.75143 9.64864 11.0678C7.67836 12.3842 6.14265 14.2552 5.23568 16.4443C4.3287 18.6334 4.09119 21.0423 4.55318 23.3664C5.01516 25.6905 6.1559 27.8254 7.83115 29.5012C9.5064 31.1771 11.6409 32.3185 13.9649 32.7813C16.2888 33.244 18.6978 33.0073 20.8872 32.1011C23.0766 31.1949 24.9482 29.6598 26.2652 27.6899C27.5822 25.7201 28.2856 23.404 28.2864 21.0344C28.2837 17.8572 27.0207 14.8107 24.7744 12.5637C22.5281 10.3166 19.4821 9.05255 16.3048 9.04883ZM21.8812 22.0321H21.8349L16.2767 21.6302C16.1486 21.6209 16.0265 21.5723 15.9271 21.491C15.8276 21.4098 15.7557 21.2998 15.7211 21.1761L13.6654 13.8716C13.6432 13.7924 13.6368 13.7097 13.6467 13.6281C13.6565 13.5464 13.6823 13.4675 13.7226 13.3959C13.7629 13.3242 13.8169 13.2612 13.8816 13.2104C13.9462 13.1597 14.0202 13.1221 14.0994 13.1C14.1786 13.0778 14.2613 13.0714 14.343 13.0813C14.4246 13.0911 14.5035 13.1169 14.5751 13.1572C14.7198 13.2386 14.8263 13.3741 14.8711 13.534L16.8072 20.4175L21.9314 20.7893C22.0946 20.7981 22.2478 20.8707 22.3581 20.9913C22.4684 21.112 22.5269 21.2711 22.5211 21.4344C22.5153 21.5978 22.4457 21.7523 22.3271 21.8648C22.2086 21.9774 22.0506 22.0389 21.8872 22.0362L21.8812 22.0321Z" fill="#F25C05"/>
</svg>
