<svg width="17" height="13" viewBox="0 0 17 13" fill="none" xmlns="http://www.w3.org/2000/svg">
<path d="M15.4307 12.9207H1.82261C0.953781 12.9207 0.252441 12.2193 0.252441 11.3505V1.92954C0.252441 1.06071 0.953781 0.359375 1.82261 0.359375H15.4307C16.2995 0.359375 17.0009 1.06071 17.0009 1.92954V11.3505C17.0009 12.2193 16.2995 12.9207 15.4307 12.9207ZM1.82261 1.40615C1.52951 1.40615 1.29922 1.63644 1.29922 1.92954V11.3505C1.29922 11.6436 1.52951 11.8739 1.82261 11.8739H15.4307C15.7238 11.8739 15.9541 11.6436 15.9541 11.3505V1.92954C15.9541 1.63644 15.7238 1.40615 15.4307 1.40615H1.82261Z" fill="white"/>
<path d="M8.62705 8.69172C7.89431 8.69172 7.22437 8.39862 6.72192 7.86477L1.22635 2.02376C1.02746 1.8144 1.03793 1.47943 1.24728 1.28054C1.45664 1.08166 1.7916 1.09213 1.99049 1.30148L7.48606 7.14249C8.08273 7.78102 9.17137 7.78102 9.76804 7.14249L15.2636 1.31195C15.4625 1.10259 15.7975 1.09213 16.0068 1.29101C16.2162 1.4899 16.2266 1.82487 16.0278 2.03422L10.5322 7.87523C10.0297 8.40909 9.35979 8.70219 8.62705 8.70219V8.69172Z" fill="white"/>
</svg>
