<svg width="337" height="49" viewBox="0 0 337 49" fill="none" xmlns="http://www.w3.org/2000/svg">
<path fill-rule="evenodd" clip-rule="evenodd" d="M71.3501 12.0751H71.3465C71.2938 12.0751 71.2446 12.0716 71.1954 12.0646C70.552 11.9837 70.0527 11.4352 70.0527 10.7672C70.0527 10.0464 70.6363 9.4593 71.3606 9.4593C72.0849 9.4593 72.6685 10.0429 72.6685 10.7672C72.6685 11.4915 72.0849 12.0751 71.3606 12.0751H71.3536H71.3501ZM74.0538 24.6443L82.0277 35.5575C81.525 32.7519 80.1608 28.575 82.3371 25.8045L73.2873 13.5693L74.4792 12.5533L77.9388 17.2083L79.4014 16.1781L70.4359 3.41553L64.7051 11.4774L64.6348 11.6848L65.7458 13.2107L66.3435 14.0369L74.0573 24.6478L74.0538 24.6443Z" fill="white"/>
<path fill-rule="evenodd" clip-rule="evenodd" d="M87.4246 29.8759C87.4246 30.4982 86.9218 31.001 86.2995 31.001C85.6772 31.001 85.1745 30.4982 85.1745 29.8759C85.1745 29.2536 85.6772 28.7508 86.2995 28.7508C86.9218 28.7508 87.4246 29.2571 87.4246 29.8759ZM84.7244 32.9593L75.8926 46.2106L93.5 45.7325C94.8782 45.5567 96.049 44.6355 96.5377 43.3311C97.0264 42.0303 96.7522 40.5641 95.8275 39.5234L85.8671 25.3686L80.0413 17.0852L78.5928 18.1048L84.5346 26.5112C83.9826 27.1898 83.6134 28.0055 83.4833 28.8915C83.2618 30.3646 83.7189 31.8624 84.7244 32.9593Z" fill="white"/>
<path fill-rule="evenodd" clip-rule="evenodd" d="M51.3199 46.0176L69.3528 21.3222L63.4813 13.2673L39.5664 46.0176H51.3199Z" fill="white"/>
<path fill-rule="evenodd" clip-rule="evenodd" d="M32.0353 46.0172L63.112 3.41553H51.362L20.2817 46.0172H32.0353Z" fill="white"/>
<path fill-rule="evenodd" clip-rule="evenodd" d="M12.6207 46.0172L43.6974 3.41553H31.9474L0.867188 46.0172H12.6207Z" fill="white"/>
<path d="M120.054 47.4934V40.8554H117.871V39.6389H123.57V40.8554H121.387V47.4934H120.054Z" fill="white"/>
<path d="M126.713 47.4934V39.6389H132.082V40.8554H128.042V42.7751H131.731V43.9916H128.042V46.2839H132.082V47.5004H126.713V47.4934Z" fill="white"/>
<path d="M135.602 47.4934V39.6389H140.172L141.354 40.8203V43.4185L140.278 44.4943L141.61 47.4898H140.098L138.861 44.6033H136.931V47.4898H135.598L135.602 47.4934ZM136.931 43.4325H139.553L140.021 42.9649V41.2808L139.553 40.8132H136.931V43.4361V43.4325Z" fill="white"/>
<path d="M145.126 47.4934V39.6389H149.697L150.878 40.8203V43.4185L149.802 44.4943L151.135 47.4898H149.623L148.385 44.6033H146.455V47.4898H145.123L145.126 47.4934ZM146.459 43.4325H149.081L149.549 42.9649V41.2808L149.081 40.8132H146.459V43.4361V43.4325Z" fill="white"/>
<path d="M153.789 47.4934L156.345 39.6389H158.339L160.895 47.4934H159.478L158.891 45.5878H155.79L155.203 47.4934H153.786H153.789ZM156.145 44.4135H158.532L157.467 40.9081H157.21L156.145 44.4135Z" fill="white"/>
<path d="M163.985 47.4934V39.6389H168.408L169.59 40.8203V43.6013L168.408 44.7826H165.318V47.4898H163.985V47.4934ZM165.318 43.6118H167.779L168.257 43.1442L168.247 41.2808L167.779 40.8132H165.318V43.6154V43.6118Z" fill="white"/>
<path d="M172.785 47.4934V39.6389H174.118V46.2769H177.922V47.4934H172.785Z" fill="white"/>
<path d="M181.013 47.4934V39.6389H186.381V40.8554H182.342V42.7751H186.03V43.9916H182.342V46.2839H186.381V47.5004H181.013V47.4934Z" fill="white"/>
<path d="M189.897 47.4934V39.6389H191.613L194.725 45.1272V39.6389H196.068V47.4934H194.609L191.497 42.0051H191.23V47.4934H189.897Z" fill="white"/>
<path d="M199.158 47.4934L201.714 39.6389H203.707L206.263 47.4934H204.846L204.259 45.5878H201.158L200.571 47.4934H199.154H199.158ZM201.513 44.4135H203.901L202.835 40.9081H202.579L201.513 44.4135Z" fill="white"/>
<path d="M210.177 47.4938L209.027 46.3124V40.8242L210.208 39.6428H214.107L215.194 40.7187L214.343 41.5695L213.576 40.8136H210.827L210.359 41.2812L210.37 45.8518L210.827 46.3194H212.873L214.1 45.2225V44.347H212.311V43.1763H215.208V47.4902H214.1V46.6816L213.204 47.4902H210.177V47.4938Z" fill="white"/>
<path d="M219.04 47.4934V39.6389H224.409V40.8554H220.369V42.7751H224.057V43.9916H220.369V46.2839H224.409V47.5004H219.04V47.4934Z" fill="white"/>
<path d="M227.928 47.4934V39.6389H229.612L231.87 45.3381L234.116 39.6389H235.8V47.4934H234.468V42.0051L232.242 47.4934H231.486L229.261 42.0051V47.4934H227.928Z" fill="white"/>
<path d="M244.294 47.4934V39.6389H249.663V40.8554H245.623V42.7751H249.312V43.9916H245.623V46.2839H249.663V47.5004H244.294V47.4934Z" fill="white"/>
<path d="M257.838 47.4938V46.2773L261.737 46.2667L262.205 45.7991L262.194 44.4771L261.737 44.0095H258.752L257.571 42.8282V40.8242L258.752 39.6428H263.098V40.8593L259.378 40.8699L258.9 41.3269L258.91 42.3711L259.378 42.8493L262.352 42.8387L263.534 44.0201V46.3124L262.352 47.4938H257.834H257.838Z" fill="white"/>
<path d="M267.105 47.4934V39.6389H272.474V40.8554H268.434V42.7751H272.123V43.9916H268.434V46.2839H272.474V47.5004H267.105V47.4934Z" fill="white"/>
<path d="M275.994 47.4934V39.6389H280.564L281.746 40.8203V43.4185L280.67 44.4943L282.002 47.4898H280.491L279.253 44.6033H277.323V47.4898H275.99L275.994 47.4934ZM277.326 43.4325H279.949L280.417 42.9649V41.2808L279.949 40.8132H277.326V43.4361V43.4325Z" fill="white"/>
<path d="M287.213 47.4934L284.657 39.6389H286.074L288.078 46.2241H288.334L290.349 39.6389H291.766L289.21 47.4934H287.216H287.213Z" fill="white"/>
<path d="M294.638 47.4937V46.2772H295.436V40.8522H294.638V39.6357H297.567V40.8522H296.769V46.2772H297.567V47.4937H294.638Z" fill="white"/>
<path d="M303.301 48.8224L303.516 47.4898H302.162L300.981 46.3085V40.8203L302.162 39.6389H305.872L306.947 40.7148L306.107 41.5656L305.33 40.8097H302.785L302.317 41.2773L302.328 45.8479L302.785 46.3155H305.429L306.206 45.5491L307.046 46.414L305.97 47.4898H304.616L304.212 48.8224H303.305H303.301Z" fill="white"/>
<path d="M311.208 47.4938L310.027 46.3124V40.8242L311.208 39.6428H315.055L316.236 40.8242V46.3124L315.055 47.4938H311.208ZM311.838 46.3194H314.436L314.903 45.8518L314.893 41.2812L314.436 40.8136H311.827L311.359 41.2812L311.37 45.8518L311.838 46.3194Z" fill="white"/>
<path d="M319.741 47.4938V46.2773L323.64 46.2667L324.108 45.7991L324.097 44.4771L323.64 44.0095H320.655L319.474 42.8282V40.8242L320.655 39.6428H325.001V40.8593L321.281 40.8699L320.803 41.3269L320.814 42.3711L321.281 42.8493L324.256 42.8387L325.437 44.0201V46.3124L324.256 47.4938H319.738H319.741Z" fill="white"/>
<path d="M117.871 0.802979H124.92L131.604 19.866L138.288 0.802979H145.355L145.337 29.4537H140.408V9.03713L133.742 29.4537H129.484L122.8 9.05471V29.4537H117.871V0.802979Z" fill="white"/>
<path d="M150.555 0.802979H169.635V5.73222H155.48V12.6655H166.52V17.5947H155.48V24.528H169.635V29.4573H150.555V0.806498V0.802979Z" fill="white"/>
<path d="M174.853 0.802979H179.782V24.5245H193.937V29.4537H174.857V0.802979H174.853Z" fill="white"/>
<path d="M199.154 4.90951L203.261 0.802979H215.658L219.764 4.90951V25.3472L215.658 29.4537H203.261L199.154 25.3472V4.90951ZM204.08 22.865L205.743 24.528H213.172L214.835 22.865V7.39522L213.172 5.73222H205.743L204.08 7.39522V22.865Z" fill="white"/>
<path d="M238.357 20.5731H243.286V22.8654L244.949 24.5284H252.378L254.058 22.8478V19.2757L252.395 17.5951H242.463L238.357 13.4886V4.91341L242.463 0.806885H254.86L258.967 4.91341V9.68795H254.037V7.39561L252.374 5.71503H244.963L243.3 7.39561V11.0064L244.942 12.6694H254.856L258.963 16.7759V25.3511L254.856 29.4576H242.46L238.353 25.3511V20.5766L238.357 20.5731Z" fill="white"/>
<path d="M264.163 0.802979H269.092V29.4537H264.163V0.802979Z" fill="white"/>
<path d="M274.31 0.802979H279.239V24.5245H293.39V29.4537H274.31V0.802979Z" fill="white"/>
<path d="M315.758 0.802979L307.221 29.4537H301.072L292.553 0.802979H297.672L304.166 22.6927L310.621 0.802979H315.758Z" fill="white"/>
<path d="M313.663 29.4537L322.199 0.802979H328.348L336.867 29.4537H331.748L329.839 23.1322H320.67L318.799 29.4537H313.663ZM322.087 18.203H328.429L325.258 7.56399L322.087 18.203Z" fill="white"/>
</svg>
