<svg width="41" height="13" viewBox="0 0 41 13" fill="none" xmlns="http://www.w3.org/2000/svg">
<path d="M10.5988 6.31431L1.62853 10.808H11.4599V12.354H1.61386C0.767463 12.354 0.0825195 11.6544 0.0825195 10.808C0.0825195 10.2209 0.439669 9.69988 0.946038 9.44058L9.89923 4.94687H0.0825195V3.41553H9.93103C10.7603 3.41553 11.4624 4.09802 11.4624 4.94687C11.4624 5.56576 11.0881 6.06968 10.5988 6.31431Z" fill="white"/>
<path d="M12.9917 3.42529H14.523V12.3614H12.9917V3.42529Z" fill="white"/>
<path d="M27.4316 6.6421L27.4145 9.11523C27.3974 10.8887 25.981 12.354 24.2075 12.354H19.2759C17.5024 12.354 16.0518 10.8887 16.0518 9.11523V6.6421C16.0518 4.86858 17.4999 3.41797 19.2759 3.41797H24.2075C25.981 3.41797 27.4145 4.86614 27.4316 6.6421ZM25.8856 6.6421C25.8856 5.71498 25.137 4.94931 24.2099 4.94931H19.2783C18.3512 4.94931 17.6027 5.71498 17.6027 6.6421V9.11523C17.6027 10.0424 18.3512 10.808 19.2783 10.808H24.2099C25.137 10.808 25.8856 10.0424 25.8856 9.11523V6.6421Z" fill="white"/>
<path d="M40.3403 6.64942V12.3638H38.8089V6.64942C38.8089 5.7223 38.0433 4.95663 37.1333 4.95663H30.5089V12.3638H28.9775V3.42529H37.1333C38.8921 3.42529 40.3403 4.87346 40.3403 6.64942Z" fill="white"/>
<path d="M25.0585 0.367188H18.4243V1.89608H25.0585V0.367188Z" fill="white"/>
</svg>
