<svg width="17" height="18" viewBox="0 0 17 18" fill="none" xmlns="http://www.w3.org/2000/svg">
<path d="M14.5601 2.67282C13.7884 1.89356 12.8693 1.27569 11.8564 0.855204C10.8435 0.434724 9.75702 0.220045 8.66031 0.223678C4.06502 0.223678 0.319772 3.96892 0.319772 8.56421C0.319772 10.0371 0.706921 11.4678 1.43072 12.7303L0.252441 17.0562L4.67099 15.8948C5.89135 16.5597 7.26321 16.9132 8.66031 16.9132C13.2556 16.9132 17.0008 13.1679 17.0008 8.57263C17.0008 6.34232 16.134 4.24666 14.5601 2.67282ZM8.66031 15.4992C7.4147 15.4992 6.19434 15.1626 5.12547 14.5314L4.87298 14.3799L2.2471 15.07L2.94565 12.5115L2.77733 12.2505C2.08513 11.1455 1.71765 9.86813 1.71687 8.56421C1.71687 4.74322 4.8309 1.6292 8.65189 1.6292C10.5035 1.6292 12.2456 2.353 13.5502 3.66594C14.1962 4.30883 14.7082 5.0736 15.0564 5.91589C15.4046 6.75818 15.582 7.66122 15.5785 8.57263C15.5953 12.3936 12.4813 15.4992 8.66031 15.4992ZM12.4645 10.3148C12.2541 10.2138 11.2273 9.70883 11.0421 9.63308C10.8485 9.56575 10.7139 9.53209 10.5708 9.73408C10.4277 9.94449 10.0322 10.4158 9.91433 10.5505C9.79651 10.6935 9.67026 10.7104 9.45986 10.601C9.24945 10.5 8.57615 10.2727 7.78502 9.56575C7.16221 9.01028 6.74981 8.32856 6.62357 8.11815C6.50574 7.90775 6.60674 7.79833 6.71615 7.68892C6.80873 7.59634 6.92655 7.44485 7.02755 7.32702C7.12855 7.20919 7.17063 7.11661 7.23796 6.98195C7.30529 6.83888 7.27162 6.72105 7.22112 6.62005C7.17063 6.51906 6.74981 5.49227 6.58149 5.07146C6.41316 4.66748 6.23642 4.71797 6.11018 4.70956H5.70619C5.56312 4.70956 5.34429 4.76005 5.15072 4.97046C4.96556 5.18087 4.42692 5.68585 4.42692 6.71263C4.42692 7.73942 5.17597 8.73254 5.27696 8.8672C5.37796 9.01028 6.74981 11.1143 8.83705 12.0149C9.33361 12.2337 9.72076 12.36 10.0237 12.4525C10.5203 12.6124 10.9748 12.5872 11.3367 12.5367C11.7407 12.4778 12.5739 12.0317 12.7422 11.5436C12.9189 11.0554 12.9189 10.643 12.86 10.5505C12.8011 10.4579 12.6749 10.4158 12.4645 10.3148Z" fill="white"/>
</svg>
