<svg width="54" height="53" viewBox="0 0 54 53" fill="none" xmlns="http://www.w3.org/2000/svg">
<circle cx="27.1981" cy="26.3309" r="26.3309" fill="#1CCA40"/>
<path fill-rule="evenodd" clip-rule="evenodd" d="M33.188 28.9256C32.8618 28.7633 31.2627 27.9812 30.9649 27.8723C30.6672 27.7645 30.4505 27.7111 30.2327 28.0357C30.016 28.3581 29.3932 29.088 29.2038 29.3036C29.0134 29.5204 28.824 29.5466 28.4989 29.3853C28.1739 29.2219 27.1253 28.881 25.883 27.7786C24.9165 26.9202 24.263 25.8604 24.0737 25.5357C23.8843 25.2122 24.0529 25.0368 24.216 24.8756C24.3626 24.7308 24.5411 24.4976 24.7041 24.3092C24.8672 24.1197 24.9209 23.9846 25.0292 23.7678C25.1387 23.5521 25.084 23.3637 25.0019 23.2014C24.9209 23.0391 24.2707 21.4454 23.9993 20.7973C23.7355 20.1666 23.4673 20.2526 23.2681 20.2417C23.0777 20.233 22.8609 20.2308 22.6442 20.2308C22.4275 20.2308 22.075 20.3115 21.7773 20.6361C21.4785 20.9596 20.639 21.7428 20.639 23.3364C20.639 24.929 21.8036 26.4682 21.9667 26.685C22.1298 26.9006 24.2598 30.1707 27.5226 31.5726C28.2997 31.906 28.905 32.1053 29.3768 32.2535C30.1561 32.5007 30.8653 32.4659 31.4257 32.382C32.0496 32.2894 33.35 31.5988 33.6214 30.8428C33.8918 30.0868 33.8918 29.4387 33.8108 29.3036C33.7298 29.1686 33.513 29.088 33.1869 28.9256H33.188ZM27.2533 36.9897H27.249C25.311 36.9901 23.4086 36.4716 21.7412 35.4887L21.3472 35.2556L17.2514 36.3253L18.3448 32.3515L18.0876 31.9441C17.0042 30.2277 16.4308 28.2413 16.4338 26.2144C16.436 20.2777 21.2892 15.4477 27.2577 15.4477C30.1473 15.4477 32.864 16.5697 34.9064 18.6045C35.9138 19.603 36.7123 20.7903 37.2556 22.0978C37.7989 23.4053 38.0764 24.8071 38.0718 26.222C38.0696 32.1587 33.2164 36.9897 27.2533 36.9897ZM36.4607 17.0588C35.2547 15.8507 33.8198 14.8928 32.2391 14.2406C30.6584 13.5884 28.9634 13.2548 27.2522 13.2593C20.0786 13.2593 14.2381 19.0707 14.2359 26.2133C14.2326 28.4864 14.8318 30.7201 15.973 32.6892L14.1265 39.4025L21.0265 37.6008C22.9352 38.6358 25.0742 39.1781 27.2479 39.1782H27.2533C34.427 39.1782 40.2675 33.3667 40.2697 26.2231C40.275 24.5208 39.941 22.8344 39.2872 21.2614C38.6334 19.6883 37.6727 18.2599 36.4607 17.0588Z" fill="white"/>
</svg>
